<?xml version="1.0" encoding="UTF-8" standalone="no"?><svg xmlns="http://www.w3.org/2000/svg" xmlns:xlink="http://www.w3.org/1999/xlink" contentScriptType="application/ecmascript" contentStyleType="text/css" height="586px" preserveAspectRatio="none" style="width:935px;height:586px;" version="1.1" viewBox="0 0 935 586" width="935px" zoomAndPan="magnify"><defs><filter height="300%" id="f1c3hsozzz8xfu" width="300%" x="-1" y="-1"><feGaussianBlur result="blurOut" stdDeviation="2.0"/><feColorMatrix in="blurOut" result="blurOut2" type="matrix" values="0 0 0 0 0 0 0 0 0 0 0 0 0 0 0 0 0 0 .4 0"/><feOffset dx="4.0" dy="4.0" in="blurOut2" result="blurOut3"/><feBlend in="SourceGraphic" in2="blurOut3" mode="normal"/></filter></defs><g><ellipse cx="461" cy="33" fill="#000000" filter="url(#f1c3hsozzz8xfu)" rx="10" ry="10" style="stroke: none; stroke-width: 1.0;"/><rect fill="#FEFECE" filter="url(#f1c3hsozzz8xfu)" height="50" rx="12.5" ry="12.5" style="stroke: #A80036; stroke-width: 1.5;" width="52" x="506" y="8"/><line style="stroke: #A80036; stroke-width: 1.5;" x1="506" x2="558" y1="35.6094" y2="35.6094"/><text fill="#000000" font-family="sans-serif" font-size="14" lengthAdjust="spacingAndGlyphs" textLength="32" x="516" y="27.5332">entry</text><rect fill="#FEFECE" filter="url(#f1c3hsozzz8xfu)" height="50" rx="12.5" ry="12.5" style="stroke: #A80036; stroke-width: 1.5;" width="56" x="594" y="281.5"/><line style="stroke: #A80036; stroke-width: 1.5;" x1="594" x2="650" y1="309.1094" y2="309.1094"/><text fill="#000000" font-family="sans-serif" font-size="14" lengthAdjust="spacingAndGlyphs" textLength="36" x="604" y="301.0332">ready</text><ellipse cx="622" cy="565" fill="none" filter="url(#f1c3hsozzz8xfu)" rx="10" ry="10" style="stroke: #000000; stroke-width: 1.0;"/><ellipse cx="622.5" cy="565.5" fill="#000000" rx="6" ry="6" style="stroke: none; stroke-width: 1.0;"/><rect fill="#FEFECE" filter="url(#f1c3hsozzz8xfu)" height="340.6094" rx="12.5" ry="12.5" style="stroke: #A80036; stroke-width: 1.5;" width="332" x="6" y="136"/><rect fill="#FFFFFF" height="307" rx="12.5" ry="12.5" style="stroke: #FFFFFF; stroke-width: 1.0;" width="326" x="9" y="166.6094"/><line style="stroke: #A80036; stroke-width: 1.5;" x1="6" x2="338" y1="163.6094" y2="163.6094"/><text fill="#000000" font-family="sans-serif" font-size="14" lengthAdjust="spacingAndGlyphs" textLength="59" x="142.5" y="155.5332">configure</text><ellipse cx="137" cy="186.6094" fill="#000000" filter="url(#f1c3hsozzz8xfu)" rx="10" ry="10" style="stroke: none; stroke-width: 1.0;"/><rect fill="#FEFECE" filter="url(#f1c3hsozzz8xfu)" height="50" rx="12.5" ry="12.5" style="stroke: #A80036; stroke-width: 1.5;" width="95" x="89.5" y="233.6094"/><line style="stroke: #A80036; stroke-width: 1.5;" x1="89.5" x2="184.5" y1="261.2188" y2="261.2188"/><text fill="#000000" font-family="sans-serif" font-size="14" lengthAdjust="spacingAndGlyphs" textLength="75" x="99.5" y="253.1426">read_config</text><rect fill="#FEFECE" filter="url(#f1c3hsozzz8xfu)" height="50" rx="12.5" ry="12.5" style="stroke: #A80036; stroke-width: 1.5;" width="116" x="17" y="337.6094"/><line style="stroke: #A80036; stroke-width: 1.5;" x1="17" x2="133" y1="365.2188" y2="365.2188"/><text fill="#000000" font-family="sans-serif" font-size="14" lengthAdjust="spacingAndGlyphs" textLength="96" x="27" y="357.1426">process_config</text><ellipse cx="141" cy="451.6094" fill="none" filter="url(#f1c3hsozzz8xfu)" rx="10" ry="10" style="stroke: #000000; stroke-width: 1.0;"/><ellipse cx="141.5" cy="452.1094" fill="#000000" rx="6" ry="6" style="stroke: none; stroke-width: 1.0;"/><rect fill="#FEFECE" filter="url(#f1c3hsozzz8xfu)" height="50" rx="12.5" ry="12.5" style="stroke: #A80036; stroke-width: 1.5;" width="97" x="157.5" y="337.6094"/><line style="stroke: #A80036; stroke-width: 1.5;" x1="157.5" x2="254.5" y1="365.2188" y2="365.2188"/><text fill="#000000" font-family="sans-serif" font-size="14" lengthAdjust="spacingAndGlyphs" textLength="77" x="167.5" y="357.1426">config_error</text><!--link *start*configure to read_config--><path d="M137,196.7604 C137,204.7954 137,216.9354 137,228.2634 " fill="none" id="*start*configure-read_config" style="stroke: #A80036; stroke-width: 1.0;"/><polygon fill="#A80036" points="137,233.3934,141,224.3934,137,228.3934,133,224.3934,137,233.3934" style="stroke: #A80036; stroke-width: 1.0;"/><!--link read_config to process_config--><path d="M101.8116,283.7984 C96.1406,289.0834 90.871,295.0744 87,301.6094 C81.51,310.8774 78.4864,322.2184 76.8368,332.5344 " fill="none" id="read_config-process_config" style="stroke: #A80036; stroke-width: 1.0;"/><polygon fill="#A80036" points="76.1325,337.5034,81.3579,329.155,76.8353,332.553,73.4373,328.0305,76.1325,337.5034" style="stroke: #A80036; stroke-width: 1.0;"/><text fill="#000000" font-family="sans-serif" font-size="13" lengthAdjust="spacingAndGlyphs" textLength="85" x="88" y="316.1045">ev_config_read</text><!--link process_config to *end*configure--><path d="M65.6607,387.676 C62.7157,399.4552 61.8446,413.2841 69,423.6094 C81.7072,441.9458 108.5045,447.8483 125.582,449.7364 " fill="none" id="process_config-*end*configure" style="stroke: #A80036; stroke-width: 1.0;"/><polygon fill="#A80036" points="130.967,450.2351,122.3745,445.4216,125.9883,449.7737,121.6363,453.3874,130.967,450.2351" style="stroke: #A80036; stroke-width: 1.0;"/><text fill="#000000" font-family="sans-serif" font-size="13" lengthAdjust="spacingAndGlyphs" textLength="113" x="70" y="420.1045">ev_config_complete</text><!--link read_config to config_error--><path d="M159.914,283.6994 C164.823,289.3714 169.793,295.5394 174,301.6094 C180.765,311.3694 187.154,322.7244 192.419,332.9124 " fill="none" id="read_config-config_error" style="stroke: #A80036; stroke-width: 1.0;"/><polygon fill="#A80036" points="194.756,337.5014,194.2346,327.6663,192.4863,333.0462,187.1064,331.2979,194.756,337.5014" style="stroke: #A80036; stroke-width: 1.0;"/><text fill="#000000" font-family="sans-serif" font-size="13" lengthAdjust="spacingAndGlyphs" textLength="118" x="186" y="316.1045">ev_config_read_error</text><!--link config_error to *end*configure--><path d="M203.022,387.7602 C200.57,399.5608 196.108,413.3835 188,423.6094 C179.559,434.255 165.69,441.4807 155.2,445.7579 " fill="none" id="config_error-*end*configure" style="stroke: #A80036; stroke-width: 1.0;"/><polygon fill="#A80036" points="150.361,447.6229,160.1974,448.1179,155.0263,445.8244,157.3198,440.6533,150.361,447.6229" style="stroke: #A80036; stroke-width: 1.0;"/><text fill="#000000" font-family="sans-serif" font-size="13" lengthAdjust="spacingAndGlyphs" textLength="73" x="199" y="420.1045">ev_terminate</text><!--link *start to entry--><path d="M471.262,33 C481.094,33 490.927,33 500.76,33 " fill="none" id="*start-entry" style="stroke: #A80036; stroke-width: 1.0;"/><polygon fill="#A80036" points="505.902,33,496.902,29,500.902,33,496.902,37,505.902,33" style="stroke: #A80036; stroke-width: 1.0;"/><!--link entry to configure--><path d="M505.82,53.744 C470.83,80.132 405.846,129.141 342.446,176.955 " fill="none" id="entry-configure" style="stroke: #A80036; stroke-width: 1.0;"/><polygon fill="#A80036" points="338.273,180.102,347.8671,177.8762,342.2649,177.0913,343.0499,171.4891,338.273,180.102" style="stroke: #A80036; stroke-width: 1.0;"/><text fill="#000000" font-family="sans-serif" font-size="13" lengthAdjust="spacingAndGlyphs" textLength="180" x="456" y="102.4951">ev_configure [config file exists]/</text><!--link configure to ready--><path d="M338.131,327.409 C395.509,331.752 460.153,333.438 519,327.5 C542.602,325.118 568.791,319.741 588.854,315.025 " fill="none" id="configure-ready" style="stroke: #A80036; stroke-width: 1.0;"/><polygon fill="#A80036" points="593.818,313.842,584.136,312.0368,588.9541,315.0008,585.9901,319.8189,593.818,313.842" style="stroke: #A80036; stroke-width: 1.0;"/><text fill="#000000" font-family="sans-serif" font-size="13" lengthAdjust="spacingAndGlyphs" textLength="104" x="414" y="323.9951">ev_config_finished</text><!--link configure to ready--><path d="M343.302,306.5 C437.018,306.5 543.934,306.5 593.721,306.5 " fill="none" id="configure-ready" style="stroke: #A80036; stroke-width: 1.0;"/><polygon fill="#A80036" points="338.285,306.5,347.285,310.5,343.285,306.5,347.285,302.5,338.285,306.5" style="stroke: #A80036; stroke-width: 1.0;"/><text fill="#000000" font-family="sans-serif" font-size="13" lengthAdjust="spacingAndGlyphs" textLength="219" x="356.5" y="299.9951">ev_re_configure [if config file updated]/</text><!--link entry to *end--><path d="M558.407,40.917 C583.507,48.683 620.904,63.514 645,88 C661.46,104.726 661.045,113.301 667,136 C711.011,303.76 788.408,376.99 698,525 C684.759,546.6774 655.215,556.8059 637.111,561.1356 " fill="none" id="entry-*end" style="stroke: #A80036; stroke-width: 1.0;"/><polygon fill="#A80036" points="631.89,562.2995,641.545,564.2442,636.7701,561.211,639.8033,556.4361,631.89,562.2995" style="stroke: #A80036; stroke-width: 1.0;"/><text fill="#000000" font-family="sans-serif" font-size="13" lengthAdjust="spacingAndGlyphs" textLength="183" x="740" y="311.9951">ev_configure [config file !exists]/</text><!--link configure to *end--><path d="M338.283,412.231 C399.57,449.394 470.124,490.5221 536,525 C560.879,538.0209 590.964,551.0765 608.152,558.2915 " fill="none" id="configure-*end" style="stroke: #A80036; stroke-width: 1.0;"/><polygon fill="#A80036" points="613.052,560.3366,606.2869,553.1788,608.4377,558.4108,603.2057,560.5616,613.052,560.3366" style="stroke: #A80036; stroke-width: 1.0;"/><text fill="#000000" font-family="sans-serif" font-size="13" lengthAdjust="spacingAndGlyphs" textLength="73" x="537" y="521.4951">ev_terminate</text><!--link ready to *end--><path d="M621.518,331.76 C620.798,369.312 619.475,443.785 619,507 C618.94,514.9998 618.693,517.0059 619,525 C619.316,533.2193 620.004,542.3916 620.642,549.775 " fill="none" id="ready-*end" style="stroke: #A80036; stroke-width: 1.0;"/><polygon fill="#A80036" points="621.113,555.027,624.2929,545.7056,620.6663,550.047,616.3249,546.4204,621.113,555.027" style="stroke: #A80036; stroke-width: 1.0;"/><text fill="#000000" font-family="sans-serif" font-size="13" lengthAdjust="spacingAndGlyphs" textLength="73" x="620" y="521.4951">ev_terminate</text><!--
@startuml

[*] -> entry
entry - -> configure : ev_configure [config file exists]/
state configure {
	[*] - -> read_config
	read_config - -> process_config : ev_config_read
	process_config - -> [*] : ev_config_complete
}
state configure {
	read_config - -> config_error : ev_config_read_error 
	config_error - -> [*] : ev_terminate
}
configure -R-> ready : ev_config_finished
ready -L-> configure : ev_re_configure [if config file updated]/
entry - -> [*] : ev_configure [config file !exists]/
configure - -> [*] : ev_terminate
ready - -> [*] : ev_terminate
@enduml

PlantUML version 1.2018.03(Thu Apr 05 17:59:15 BST 2018)
(GPL source distribution)
Java Runtime: Java(TM) SE Runtime Environment
JVM: Java HotSpot(TM) Client VM
Java Version: 1.8.0_31-b13
Operating System: Windows 8.1
OS Version: 6.3
Default Encoding: Cp1252
Language: en
Country: GB
--></g></svg>